<mxfile host="65bd71144e">
    <diagram name="ランダムコード生成" id="Lqupp_-Yrf3zyH8cQ9iY">
        <mxGraphModel dx="855" dy="164" grid="1" gridSize="10" guides="1" tooltips="1" connect="1" arrows="1" fold="1" page="0" pageScale="1" pageWidth="827" pageHeight="1169" math="0" shadow="0">
            <root>
                <mxCell id="UQp5eijyWlWmCAnFbhO9-0"/>
                <mxCell id="UQp5eijyWlWmCAnFbhO9-1" parent="UQp5eijyWlWmCAnFbhO9-0"/>
                <mxCell id="UQp5eijyWlWmCAnFbhO9-44" value="画面" style="shape=umlLifeline;perimeter=lifelinePerimeter;whiteSpace=wrap;html=1;container=1;collapsible=0;recursiveResize=0;outlineConnect=0;" vertex="1" parent="UQp5eijyWlWmCAnFbhO9-1">
                    <mxGeometry y="800" width="100" height="720" as="geometry"/>
                </mxCell>
                <mxCell id="UQp5eijyWlWmCAnFbhO9-45" value="" style="html=1;points=[];perimeter=orthogonalPerimeter;" vertex="1" parent="UQp5eijyWlWmCAnFbhO9-44">
                    <mxGeometry x="45" y="90" width="10" height="40" as="geometry"/>
                </mxCell>
                <mxCell id="UQp5eijyWlWmCAnFbhO9-63" value="" style="html=1;points=[];perimeter=orthogonalPerimeter;" vertex="1" parent="UQp5eijyWlWmCAnFbhO9-44">
                    <mxGeometry x="45" y="160" width="10" height="430" as="geometry"/>
                </mxCell>
                <mxCell id="UQp5eijyWlWmCAnFbhO9-50" value="Game&lt;br&gt;コントローラー" style="shape=umlLifeline;perimeter=lifelinePerimeter;whiteSpace=wrap;html=1;container=1;collapsible=0;recursiveResize=0;outlineConnect=0;" vertex="1" parent="UQp5eijyWlWmCAnFbhO9-1">
                    <mxGeometry x="160" y="800" width="100" height="720" as="geometry"/>
                </mxCell>
                <mxCell id="UQp5eijyWlWmCAnFbhO9-51" value="" style="html=1;points=[];perimeter=orthogonalPerimeter;" vertex="1" parent="UQp5eijyWlWmCAnFbhO9-50">
                    <mxGeometry x="45" y="90" width="10" height="40" as="geometry"/>
                </mxCell>
                <mxCell id="UQp5eijyWlWmCAnFbhO9-62" value="" style="html=1;points=[];perimeter=orthogonalPerimeter;" vertex="1" parent="UQp5eijyWlWmCAnFbhO9-50">
                    <mxGeometry x="45" y="160" width="10" height="430" as="geometry"/>
                </mxCell>
                <mxCell id="UQp5eijyWlWmCAnFbhO9-64" value="GameStart" style="endArrow=classic;html=1;startArrow=none;startFill=0;align=center;verticalAlign=bottom;endFill=1;strokeWidth=1;" edge="1" parent="UQp5eijyWlWmCAnFbhO9-50">
                    <mxGeometry y="3" relative="1" as="geometry">
                        <mxPoint x="-105" y="174" as="sourcePoint"/>
                        <mxPoint x="44.999999999999886" y="174" as="targetPoint"/>
                    </mxGeometry>
                </mxCell>
                <mxCell id="UQp5eijyWlWmCAnFbhO9-66" value="描画" style="endArrow=none;html=1;startArrow=classic;startFill=1;align=center;verticalAlign=bottom;endFill=0;strokeWidth=1;dashed=1;" edge="1" parent="UQp5eijyWlWmCAnFbhO9-50">
                    <mxGeometry y="3" relative="1" as="geometry">
                        <mxPoint x="-105" y="458" as="sourcePoint"/>
                        <mxPoint x="44.999999999999886" y="458" as="targetPoint"/>
                    </mxGeometry>
                </mxCell>
                <mxCell id="UQp5eijyWlWmCAnFbhO9-52" value="Chord&lt;br&gt;生成サービス" style="shape=umlLifeline;perimeter=lifelinePerimeter;whiteSpace=wrap;html=1;container=1;collapsible=0;recursiveResize=0;outlineConnect=0;" vertex="1" parent="UQp5eijyWlWmCAnFbhO9-1">
                    <mxGeometry x="320" y="800" width="110" height="720" as="geometry"/>
                </mxCell>
                <mxCell id="UQp5eijyWlWmCAnFbhO9-53" value="" style="html=1;points=[];perimeter=orthogonalPerimeter;" vertex="1" parent="UQp5eijyWlWmCAnFbhO9-52">
                    <mxGeometry x="50" y="150" width="10" height="440" as="geometry"/>
                </mxCell>
                <mxCell id="UQp5eijyWlWmCAnFbhO9-54" value="Note&lt;br&gt;生成サービス" style="shape=umlLifeline;perimeter=lifelinePerimeter;whiteSpace=wrap;html=1;container=1;collapsible=0;recursiveResize=0;outlineConnect=0;" vertex="1" parent="UQp5eijyWlWmCAnFbhO9-1">
                    <mxGeometry x="480" y="800" width="100" height="720" as="geometry"/>
                </mxCell>
                <mxCell id="UQp5eijyWlWmCAnFbhO9-55" value="" style="html=1;points=[];perimeter=orthogonalPerimeter;" vertex="1" parent="UQp5eijyWlWmCAnFbhO9-54">
                    <mxGeometry x="45" y="196" width="10" height="50" as="geometry"/>
                </mxCell>
                <mxCell id="UQp5eijyWlWmCAnFbhO9-71" value="BaseRootNote生成" style="endArrow=classic;html=1;startArrow=none;startFill=0;align=center;verticalAlign=bottom;endFill=1;strokeWidth=1;" edge="1" parent="UQp5eijyWlWmCAnFbhO9-54" source="UQp5eijyWlWmCAnFbhO9-53">
                    <mxGeometry y="3" relative="1" as="geometry">
                        <mxPoint x="-105" y="208.75" as="sourcePoint"/>
                        <mxPoint x="45" y="208.75" as="targetPoint"/>
                    </mxGeometry>
                </mxCell>
                <mxCell id="UQp5eijyWlWmCAnFbhO9-57" value="" style="shape=umlActor;verticalLabelPosition=bottom;verticalAlign=top;html=1;outlineConnect=0;" vertex="1" parent="UQp5eijyWlWmCAnFbhO9-1">
                    <mxGeometry x="35" y="730" width="30" height="60" as="geometry"/>
                </mxCell>
                <mxCell id="UQp5eijyWlWmCAnFbhO9-60" value="GameType設定" style="endArrow=classic;html=1;startArrow=none;startFill=0;align=center;verticalAlign=bottom;endFill=1;strokeWidth=1;" edge="1" parent="UQp5eijyWlWmCAnFbhO9-1">
                    <mxGeometry y="3" relative="1" as="geometry">
                        <mxPoint x="55" y="910" as="sourcePoint"/>
                        <mxPoint x="205" y="910" as="targetPoint"/>
                    </mxGeometry>
                </mxCell>
                <mxCell id="UQp5eijyWlWmCAnFbhO9-69" value="RandomDiatonicChord&lt;br&gt;生成" style="endArrow=classic;html=1;startArrow=none;startFill=0;align=center;verticalAlign=bottom;endFill=1;strokeWidth=1;" edge="1" parent="UQp5eijyWlWmCAnFbhO9-1" target="UQp5eijyWlWmCAnFbhO9-53">
                    <mxGeometry y="3" relative="1" as="geometry">
                        <mxPoint x="215" y="992" as="sourcePoint"/>
                        <mxPoint x="365" y="992" as="targetPoint"/>
                    </mxGeometry>
                </mxCell>
                <mxCell id="UQp5eijyWlWmCAnFbhO9-73" value="コード返却" style="endArrow=none;html=1;startArrow=classic;startFill=1;align=center;verticalAlign=bottom;endFill=0;strokeWidth=1;dashed=1;" edge="1" parent="UQp5eijyWlWmCAnFbhO9-1" target="UQp5eijyWlWmCAnFbhO9-53">
                    <mxGeometry y="3" relative="1" as="geometry">
                        <mxPoint x="215" y="1237" as="sourcePoint"/>
                        <mxPoint x="365" y="1237" as="targetPoint"/>
                    </mxGeometry>
                </mxCell>
                <mxCell id="UQp5eijyWlWmCAnFbhO9-77" value="返却" style="endArrow=none;html=1;startArrow=classic;startFill=1;align=center;verticalAlign=bottom;endFill=0;strokeWidth=1;dashed=1;" edge="1" parent="UQp5eijyWlWmCAnFbhO9-1" source="UQp5eijyWlWmCAnFbhO9-53">
                    <mxGeometry y="3" relative="1" as="geometry">
                        <mxPoint x="375.172131147541" y="1034" as="sourcePoint"/>
                        <mxPoint x="525" y="1034" as="targetPoint"/>
                    </mxGeometry>
                </mxCell>
                <mxCell id="UQp5eijyWlWmCAnFbhO9-79" value="定数ファイル" style="shape=umlLifeline;perimeter=lifelinePerimeter;whiteSpace=wrap;html=1;container=1;collapsible=0;recursiveResize=0;outlineConnect=0;" vertex="1" parent="UQp5eijyWlWmCAnFbhO9-1">
                    <mxGeometry x="640" y="800" width="100" height="720" as="geometry"/>
                </mxCell>
                <mxCell id="UQp5eijyWlWmCAnFbhO9-80" value="" style="html=1;points=[];perimeter=orthogonalPerimeter;" vertex="1" parent="UQp5eijyWlWmCAnFbhO9-79">
                    <mxGeometry x="45" y="150" width="10" height="40" as="geometry"/>
                </mxCell>
                <mxCell id="UQp5eijyWlWmCAnFbhO9-90" value="" style="html=1;points=[];perimeter=orthogonalPerimeter;" vertex="1" parent="UQp5eijyWlWmCAnFbhO9-79">
                    <mxGeometry x="45" y="336" width="10" height="40" as="geometry"/>
                </mxCell>
                <mxCell id="UQp5eijyWlWmCAnFbhO9-97" value="" style="html=1;points=[];perimeter=orthogonalPerimeter;" vertex="1" parent="UQp5eijyWlWmCAnFbhO9-79">
                    <mxGeometry x="45" y="383" width="10" height="40" as="geometry"/>
                </mxCell>
                <mxCell id="UQp5eijyWlWmCAnFbhO9-84" value="MajorScale取得" style="endArrow=classic;html=1;startArrow=none;startFill=0;align=center;verticalAlign=bottom;endFill=1;strokeWidth=1;" edge="1" parent="UQp5eijyWlWmCAnFbhO9-1">
                    <mxGeometry y="3" relative="1" as="geometry">
                        <mxPoint x="380" y="970.0000000000001" as="sourcePoint"/>
                        <mxPoint x="685" y="970.0000000000001" as="targetPoint"/>
                    </mxGeometry>
                </mxCell>
                <mxCell id="UQp5eijyWlWmCAnFbhO9-88" value="RandomRootNote生成" style="edgeStyle=orthogonalEdgeStyle;html=1;align=left;spacingLeft=2;endArrow=block;rounded=0;entryX=1;entryY=0;strokeWidth=1;" edge="1" parent="UQp5eijyWlWmCAnFbhO9-1" source="UQp5eijyWlWmCAnFbhO9-53">
                    <mxGeometry relative="1" as="geometry">
                        <mxPoint x="375" y="1104" as="sourcePoint"/>
                        <Array as="points">
                            <mxPoint x="405" y="1104"/>
                            <mxPoint x="405" y="1124"/>
                        </Array>
                        <mxPoint x="380" y="1124" as="targetPoint"/>
                    </mxGeometry>
                </mxCell>
                <mxCell id="UQp5eijyWlWmCAnFbhO9-89" value="ChordKeyName取得" style="endArrow=classic;html=1;startArrow=none;startFill=0;align=center;verticalAlign=bottom;endFill=1;strokeWidth=1;" edge="1" parent="UQp5eijyWlWmCAnFbhO9-1" source="UQp5eijyWlWmCAnFbhO9-53">
                    <mxGeometry y="3" relative="1" as="geometry">
                        <mxPoint x="390" y="1170" as="sourcePoint"/>
                        <mxPoint x="684.5" y="1156" as="targetPoint"/>
                    </mxGeometry>
                </mxCell>
                <mxCell id="UQp5eijyWlWmCAnFbhO9-93" value="major | minor | M7 | m7 | 7" style="shape=callout;whiteSpace=wrap;html=1;perimeter=calloutPerimeter;position2=0;size=10;position=0.08;fontSize=10;rounded=0;sketch=0;fillColor=#fff2cc;strokeColor=#d6b656;" vertex="1" parent="UQp5eijyWlWmCAnFbhO9-1">
                    <mxGeometry x="700" y="1127" width="130" height="30" as="geometry"/>
                </mxCell>
                <mxCell id="UQp5eijyWlWmCAnFbhO9-94" value="[ 1, 3, 5 ,6 ,8... ]" style="shape=callout;whiteSpace=wrap;html=1;perimeter=calloutPerimeter;position2=0;size=10;position=0.08;fontSize=10;rounded=0;sketch=0;fillColor=#fff2cc;strokeColor=#d6b656;" vertex="1" parent="UQp5eijyWlWmCAnFbhO9-1">
                    <mxGeometry x="699" y="938" width="90" height="30" as="geometry"/>
                </mxCell>
                <mxCell id="UQp5eijyWlWmCAnFbhO9-95" value="RandomChordDegree生成" style="edgeStyle=orthogonalEdgeStyle;html=1;align=left;spacingLeft=2;endArrow=block;rounded=0;entryX=1;entryY=0;strokeWidth=1;" edge="1" parent="UQp5eijyWlWmCAnFbhO9-1" source="UQp5eijyWlWmCAnFbhO9-53">
                    <mxGeometry relative="1" as="geometry">
                        <mxPoint x="375" y="1060" as="sourcePoint"/>
                        <Array as="points">
                            <mxPoint x="405" y="1060"/>
                            <mxPoint x="405" y="1080"/>
                        </Array>
                        <mxPoint x="380" y="1080" as="targetPoint"/>
                    </mxGeometry>
                </mxCell>
                <mxCell id="UQp5eijyWlWmCAnFbhO9-96" value="何度のコードを&lt;br&gt;生成するか決定" style="shape=callout;whiteSpace=wrap;html=1;perimeter=calloutPerimeter;position2=0;size=10;position=0.08;fontSize=10;rounded=0;sketch=0;fillColor=#fff2cc;strokeColor=#d6b656;" vertex="1" parent="UQp5eijyWlWmCAnFbhO9-1">
                    <mxGeometry x="540" y="1030" width="90" height="36" as="geometry"/>
                </mxCell>
                <mxCell id="UQp5eijyWlWmCAnFbhO9-98" value="ChordConfig取得" style="endArrow=classic;html=1;startArrow=none;startFill=0;align=center;verticalAlign=bottom;endFill=1;strokeWidth=1;" edge="1" parent="UQp5eijyWlWmCAnFbhO9-1">
                    <mxGeometry y="3" relative="1" as="geometry">
                        <mxPoint x="380" y="1201" as="sourcePoint"/>
                        <mxPoint x="685" y="1201" as="targetPoint"/>
                    </mxGeometry>
                </mxCell>
                <mxCell id="UQp5eijyWlWmCAnFbhO9-99" value="[ 1, 5, 8 ] etc..." style="shape=callout;whiteSpace=wrap;html=1;perimeter=calloutPerimeter;position2=0;size=10;position=0.08;fontSize=10;rounded=0;sketch=0;fillColor=#fff2cc;strokeColor=#d6b656;" vertex="1" parent="UQp5eijyWlWmCAnFbhO9-1">
                    <mxGeometry x="699" y="1174" width="130" height="30" as="geometry"/>
                </mxCell>
            </root>
        </mxGraphModel>
    </diagram>
</mxfile>